<svg id="Layer_1" data-name="Layer 1" xmlns="http://www.w3.org/2000/svg" viewBox="0 0 349.19 349.19"><defs><style>.cls-1{fill:#fff;}</style></defs><path class="cls-1" d="M175.61,301.3c-69.87,0-126.72-56.83-126.72-126.7A126.67,126.67,0,0,1,274.45,95.39l41.81-24.13A174.43,174.43,0,0,0,175.61,0C79.33,0,1,78.32,1,174.6s78.32,174.59,174.6,174.59a174.43,174.43,0,0,0,140.65-71.26l-41.81-24.14A126.49,126.49,0,0,1,175.61,301.3Z"/><path class="cls-1" d="M175.61,241.7A67.11,67.11,0,1,1,221.7,125.86l21.38-12.35a91.06,91.06,0,1,0,0,122.17L221.7,223.33A66.88,66.88,0,0,1,175.61,241.7Z"/></svg>